<svg width="486.796" height="232.193" viewBox="0 0 486.796 232.193" xmlns="http://www.w3.org/2000/svg"><g id="svgGroup" stroke-linecap="round" fill-rule="evenodd" font-size="9pt" stroke="0" stroke-width="0.25mm" fill="#ffffff" style="stroke:0;stroke-width:0.25mm;fill:0"><path d="M 64.256 129.28 L 60.928 129.28 Q 50.688 141.312 41.856 153.472 Q 33.024 165.632 26.496 177.28 Q 19.968 188.928 16.256 200.064 A 76.661 76.661 0 0 0 13.487 210.767 A 57.593 57.593 0 0 0 12.544 220.928 Q 12.544 223.391 13.23 224.679 A 3.324 3.324 0 0 0 13.44 225.024 A 9.06 9.06 0 0 0 14.028 225.782 Q 14.63 226.472 15.232 226.816 Q 16.128 227.328 17.024 227.456 A 4.99 4.99 0 0 1 17.306 227.504 Q 17.92 227.628 17.92 227.84 Q 17.92 228.253 17.505 229.58 A 40.145 40.145 0 0 1 17.28 230.272 Q 16.678 232.079 14.377 232.186 A 6.386 6.386 0 0 1 14.08 232.192 A 7.143 7.143 0 0 1 8.9 230.084 A 8.66 8.66 0 0 1 8.832 230.016 A 13.586 13.586 0 0 1 6.852 227.462 Q 6.094 226.218 5.473 224.7 A 24.119 24.119 0 0 1 5.248 224.128 Q 3.84 220.416 3.328 215.808 Q 2.816 211.2 2.816 206.336 Q 2.816 192.621 9.251 176.211 A 135.565 135.565 0 0 1 12.288 169.088 A 266.421 266.421 0 0 1 25.432 144.21 A 333.837 333.837 0 0 1 36.608 126.72 Q 29.952 125.184 23.424 122.752 Q 16.896 120.32 11.776 116.224 Q 6.656 112.128 3.328 106.368 Q 0 100.608 0 92.672 A 44.243 44.243 0 0 1 5.278 71.899 A 54.857 54.857 0 0 1 7.552 67.968 Q 15.104 56.064 27.136 45.824 A 167.339 167.339 0 0 1 48.407 30.505 A 191.133 191.133 0 0 1 54.144 27.136 Q 69.12 18.688 84.096 12.672 Q 99.072 6.656 112.384 3.328 Q 121.601 1.024 128.732 0.315 A 60.099 60.099 0 0 1 134.656 0 A 29.527 29.527 0 0 1 139.415 0.366 A 21.836 21.836 0 0 1 144.128 1.664 Q 147.864 3.182 150.535 5.019 A 23.515 23.515 0 0 1 151.04 5.376 Q 155.136 2.816 158.08 1.408 Q 161.024 0 162.816 0 A 11.961 11.961 0 0 1 165.771 0.346 A 8.414 8.414 0 0 1 169.728 2.56 A 15.41 15.41 0 0 1 172.898 7.231 A 18.923 18.923 0 0 1 173.568 8.96 Q 180.44 0.667 182.706 0.05 A 1.281 1.281 0 0 1 183.04 0 A 4.012 4.012 0 0 1 183.78 0.083 Q 184.996 0.316 187.17 1.209 A 48.568 48.568 0 0 1 187.648 1.408 Q 190.976 2.816 194.432 4.864 Q 197.888 6.912 200.448 9.216 A 13.901 13.901 0 0 1 201.553 10.319 Q 203.008 11.961 203.008 13.312 Q 203.008 14.62 197.814 21.77 A 253.619 253.619 0 0 1 195.84 24.448 Q 189.029 33.57 179.098 47.199 A 4399.105 4399.105 0 0 0 178.048 48.64 Q 167.424 63.232 155.136 81.152 Q 142.848 99.072 132.352 117.504 A 38.547 38.547 0 0 1 134.902 120.454 Q 137.333 123.599 138.128 126.307 A 10.617 10.617 0 0 1 138.24 126.72 Q 139.052 129.968 138.576 132.412 A 8.094 8.094 0 0 1 138.24 133.632 A 9.9 9.9 0 0 1 137.482 135.27 Q 136.969 136.143 136.318 136.743 A 4.92 4.92 0 0 1 135.296 137.472 Q 133.376 138.496 132.352 137.472 Q 131.584 136.704 132.608 135.552 A 2.321 2.321 0 0 0 132.853 135.227 Q 133.45 134.255 132.352 133.376 Q 129.867 131.14 125.935 129.868 A 25.356 25.356 0 0 0 125.696 129.792 A 259.421 259.421 0 0 0 117.828 146.669 A 207.859 207.859 0 0 0 113.536 157.696 A 87.282 87.282 0 0 0 110.545 167.942 Q 108.903 175.312 109.056 181.76 A 23.282 23.282 0 0 0 109.094 183.136 Q 109.211 185.111 109.696 185.984 Q 110.266 187.009 110.937 187.224 A 1.197 1.197 0 0 0 111.104 187.264 Q 111.872 187.392 112.64 187.264 Q 113.216 187.168 113.504 187.288 A 0.489 0.489 0 0 1 113.664 187.392 A 2.549 2.549 0 0 1 114.414 189.146 Q 114.452 190.008 114.048 191.104 Q 113.269 193.219 109.296 193.495 A 18.282 18.282 0 0 1 108.032 193.536 A 9.768 9.768 0 0 1 101.958 191.362 Q 100.503 190.242 99.161 188.545 A 23.46 23.46 0 0 1 98.048 187.008 Q 93.929 180.83 93.709 168.573 A 78.159 78.159 0 0 1 93.696 167.168 Q 93.696 158.976 96.256 149.12 Q 98.816 139.264 103.168 128 Q 92.928 128 82.432 128.64 Q 74.396 129.13 68.011 129.245 A 209.057 209.057 0 0 1 64.256 129.28 Z M 258.943 115.234 A 20.335 20.335 0 0 0 257.792 116.224 A 453.574 453.574 0 0 0 257.233 116.672 Q 255.786 117.834 252.544 120.448 Q 248.576 123.648 243.968 127.36 Q 239.36 131.072 235.008 134.272 Q 231.676 136.722 229.995 138.047 A 41.756 41.756 0 0 0 229.12 138.752 A 87.727 87.727 0 0 1 231.329 132.562 A 104.145 104.145 0 0 1 237.056 120.576 Q 242.176 111.36 247.296 103.68 Q 252.416 96 256.256 90.624 A 108.916 108.916 0 0 0 256.689 90.014 Q 260.096 85.174 260.096 83.968 Q 260.096 82.176 258.432 80.128 A 16.777 16.777 0 0 0 256.444 78.084 A 22.82 22.82 0 0 0 254.08 76.288 A 21.268 21.268 0 0 0 252.874 75.541 A 23.496 23.496 0 0 0 248.064 73.472 Q 244.736 72.448 241.408 72.448 Q 238.592 72.448 231.424 77.056 A 127.307 127.307 0 0 0 228.561 78.954 Q 222.531 83.064 215.424 88.832 Q 206.592 96 197.12 104.576 Q 187.648 113.152 179.968 121.088 A 657.94 657.94 0 0 1 183.865 112.511 Q 190.126 98.994 195.712 88.704 Q 203.008 75.264 208.896 65.92 A 258.87 258.87 0 0 1 212.609 60.188 Q 216.254 54.728 219.264 50.944 Q 223.744 45.312 226.688 41.856 A 460.48 460.48 0 0 0 227.991 40.321 Q 229.992 37.95 231.168 36.48 A 12.088 12.088 0 0 0 231.175 36.472 Q 232.106 35.307 232.47 34.283 A 3.752 3.752 0 0 0 232.704 33.024 Q 232.704 31.673 231.249 30.031 A 13.901 13.901 0 0 0 230.144 28.928 Q 227.584 26.624 224.128 24.704 Q 220.672 22.784 217.344 21.376 A 48.568 48.568 0 0 0 216.866 21.177 Q 214.692 20.284 213.476 20.051 A 4.012 4.012 0 0 0 212.736 19.968 A 2.473 2.473 0 0 0 211.708 20.246 Q 209.56 21.262 205.44 25.984 Q 200.192 32 193.408 42.112 Q 186.624 52.224 179.328 65.28 Q 172.032 78.336 166.016 92.544 A 265.39 265.39 0 0 0 165.993 92.6 A 238.393 238.393 0 0 0 156.032 120.832 Q 152.064 134.912 152.064 146.944 A 30.841 30.841 0 0 0 152.138 149.035 A 39.485 39.485 0 0 0 152.448 151.936 A 18.234 18.234 0 0 0 152.451 151.957 A 16.201 16.201 0 0 0 153.984 156.928 A 13.939 13.939 0 0 0 154.399 157.698 A 11.828 11.828 0 0 0 156.928 160.768 Q 158.72 162.304 161.536 162.304 A 15.283 15.283 0 0 0 161.575 162.304 Q 164.357 162.297 164.992 161.28 A 4.401 4.401 0 0 0 165.271 160.747 Q 165.746 159.685 166.144 157.696 L 166.4 157.44 A 0.846 0.846 0 0 1 166.404 157.365 Q 166.481 156.505 168.192 152.96 A 24.897 24.897 0 0 1 169.23 151.057 Q 171.313 147.565 175.744 141.952 A 103.515 103.515 0 0 1 176.908 140.506 Q 182.581 133.58 192.64 123.52 A 254.953 254.953 0 0 1 200.816 115.73 Q 210.076 107.26 222.976 96.768 Q 217.6 107.52 213.504 119.808 Q 209.408 132.096 209.408 142.592 A 66.862 66.862 0 0 0 209.475 145.664 Q 209.654 149.532 210.304 152.32 Q 211.2 156.16 212.48 158.336 A 19.376 19.376 0 0 0 212.533 158.425 Q 213.787 160.531 215.04 161.408 A 6.929 6.929 0 0 0 215.688 161.813 Q 216.586 162.304 217.344 162.304 A 3.865 3.865 0 0 0 217.807 162.275 Q 220.388 161.963 225.536 158.336 Q 231.168 154.368 237.312 149.12 Q 243.456 143.872 249.088 138.88 A 539.916 539.916 0 0 0 249.958 138.107 Q 254.903 133.706 257.024 131.584 Q 260.864 128 262.656 124.032 A 27.381 27.381 0 0 0 263.528 121.876 Q 264.448 119.266 264.448 117.248 Q 264.448 115.95 264.095 115.115 A 2.294 2.294 0 0 0 262.784 113.792 A 1.569 1.569 0 0 0 262.739 113.776 Q 261.381 113.301 258.943 115.234 Z M 450.201 140.093 A 18.185 18.185 0 0 0 451.712 139.392 Q 454.598 137.9 458.025 135.479 A 87.172 87.172 0 0 0 460.032 134.016 Q 464.64 130.56 470.016 125.952 Q 475.392 121.344 481.28 116.224 Q 482.883 114.8 484.114 114.8 A 1.963 1.963 0 0 1 485.12 115.072 A 2.941 2.941 0 0 1 486.317 116.445 Q 486.554 116.965 486.674 117.635 A 7.974 7.974 0 0 1 486.784 118.656 A 10.431 10.431 0 0 1 486.796 119.153 Q 486.796 121.21 486.019 123.761 A 25.918 25.918 0 0 1 485.632 124.928 A 16.341 16.341 0 0 1 483.62 128.772 Q 482.566 130.284 481.118 131.746 A 27.037 27.037 0 0 1 481.024 131.84 Q 475.648 137.984 470.4 143.488 A 129.159 129.159 0 0 1 463.971 149.795 A 105.255 105.255 0 0 1 460.032 153.216 Q 454.912 157.44 450.048 159.872 Q 445.366 162.214 441.158 162.538 A 17.894 17.894 0 0 1 440.832 162.56 Q 436.224 162.816 432.512 159.872 Q 428.8 156.928 425.856 152.448 Q 422.912 147.968 420.736 142.72 A 114.285 114.285 0 0 1 418.838 137.847 Q 417.996 135.52 417.364 133.402 A 68.617 68.617 0 0 1 417.28 133.12 Q 415.428 133.944 413.576 135.842 A 20.832 20.832 0 0 0 412.672 136.832 Q 410.368 139.52 408.32 142.592 Q 406.272 145.664 404.736 148.864 Q 403.27 151.918 402.737 153.923 A 13.044 13.044 0 0 0 402.688 154.112 Q 401.408 159.488 400 161.024 A 3.961 3.961 0 0 1 398.577 161.986 Q 397.337 162.503 395.437 162.555 A 15.818 15.818 0 0 1 395.008 162.56 Q 392.192 162.56 390.4 161.024 A 11.828 11.828 0 0 1 387.871 157.954 A 13.939 13.939 0 0 1 387.456 157.184 A 15.741 15.741 0 0 1 386.129 153.293 A 18.587 18.587 0 0 1 385.92 152.064 A 44.657 44.657 0 0 1 385.633 149.381 A 32.59 32.59 0 0 1 385.536 146.944 Q 385.536 134.144 389.376 119.808 Q 393.216 105.472 399.104 91.52 Q 404.992 77.568 412.032 64.64 Q 419.072 51.712 425.6 41.984 Q 430.299 34.983 434.268 29.971 A 101.97 101.97 0 0 1 437.248 26.368 Q 441.309 21.698 443.438 20.732 A 2.423 2.423 0 0 1 444.416 20.48 Q 445.952 20.48 449.152 21.888 Q 452.352 23.296 455.808 25.344 Q 459.264 27.392 461.824 29.696 A 13.901 13.901 0 0 1 462.929 30.799 Q 464.384 32.441 464.384 33.792 Q 464.384 35.328 463.232 36.864 Q 462.101 38.373 459.613 41.362 A 320.106 320.106 0 0 1 459.52 41.472 Q 457.23 44.22 453.916 48.505 A 479.442 479.442 0 0 0 453.12 49.536 A 114.08 114.08 0 0 0 450.314 53.362 Q 447.476 57.388 444.032 62.848 Q 438.784 71.168 432 83.456 Q 425.216 95.744 417.024 113.152 Q 422.912 106.752 430.208 99.584 A 293.085 293.085 0 0 1 440.564 89.876 A 252.311 252.311 0 0 1 444.544 86.4 Q 450.842 81.019 456.422 77.379 A 79.868 79.868 0 0 1 457.728 76.544 Q 462.451 73.593 465.509 72.91 A 7.807 7.807 0 0 1 467.2 72.704 Q 471.808 72.704 475.008 76.288 Q 478.208 79.872 479.616 84.352 Q 481.024 88.832 480.896 92.416 A 10.784 10.784 0 0 1 480.79 93.632 Q 480.609 94.831 480.146 95.424 A 1.418 1.418 0 0 1 478.976 96 A 7.014 7.014 0 0 1 477.298 95.812 A 4.501 4.501 0 0 1 474.752 94.208 A 3.851 3.851 0 0 0 473.28 93.099 Q 472.014 92.524 470.023 92.434 A 16.992 16.992 0 0 0 469.248 92.416 A 20.423 20.423 0 0 0 462.757 93.556 Q 457.706 95.249 451.968 99.456 Q 443.718 105.506 434.617 114.487 A 231.12 231.12 0 0 0 431.616 117.504 Q 432.234 119.976 433.267 123.029 A 108.411 108.411 0 0 0 433.792 124.544 Q 435.2 128.512 436.864 131.968 Q 438.528 135.424 440.704 137.984 A 10.155 10.155 0 0 0 442.21 139.444 Q 443.25 140.251 444.369 140.587 A 5.665 5.665 0 0 0 445.44 140.8 Q 447.461 141.205 450.201 140.093 Z M 347.392 114.176 Q 350.464 111.104 351.872 112 A 2.023 2.023 0 0 1 352.678 113.029 Q 353.081 114.093 352.768 115.968 A 17.129 17.129 0 0 1 352.168 118.38 Q 351.457 120.591 350.08 123.264 A 27.63 27.63 0 0 1 345.719 129.416 A 32.78 32.78 0 0 1 344.064 131.072 Q 342.016 132.864 337.024 137.984 A 307.637 307.637 0 0 1 329.191 145.725 A 355.413 355.413 0 0 1 326.272 148.48 A 144.053 144.053 0 0 1 319.347 154.557 A 116.976 116.976 0 0 1 315.008 157.952 Q 309.504 162.048 306.432 162.048 Q 303.616 162.048 301.824 160.512 Q 300.032 158.976 298.88 156.544 Q 297.728 154.112 297.344 151.424 A 39.485 39.485 0 0 1 297.034 148.523 A 30.841 30.841 0 0 1 296.96 146.432 A 72.13 72.13 0 0 1 297.804 135.762 Q 298.76 129.381 300.8 122.24 Q 304.64 108.8 310.656 94.848 Q 316.672 80.896 323.968 67.456 Q 331.148 54.23 337.709 43.978 A 272.391 272.391 0 0 1 337.92 43.648 A 263.014 263.014 0 0 1 342.522 36.709 Q 346.462 30.98 349.824 26.88 Q 353.88 21.935 356.024 20.811 A 2.443 2.443 0 0 1 357.12 20.48 A 4.341 4.341 0 0 1 357.9 20.562 Q 359.114 20.786 361.088 21.632 Q 363.776 22.784 366.464 24.448 Q 369.152 26.112 371.072 28.16 A 10.239 10.239 0 0 1 372 29.292 Q 372.992 30.712 372.992 32 A 2.865 2.865 0 0 1 372.764 32.973 Q 371.912 35.196 367.872 40.448 Q 362.752 47.104 354.944 59.52 Q 348.966 69.026 342.013 82.134 A 595.167 595.167 0 0 0 337.664 90.496 Q 328.192 109.056 319.744 134.656 A 0.236 0.236 0 0 0 319.956 134.816 Q 320.648 134.914 323.435 133.056 A 55.492 55.492 0 0 0 324.096 132.608 Q 327.92 129.979 332.525 126.458 A 292.713 292.713 0 0 0 333.184 125.952 Q 338.176 122.112 342.4 118.528 Q 346.624 114.944 347.392 114.176 Z M 302.634 115.234 A 18.327 18.327 0 0 0 301.568 116.224 Q 300.588 117.204 298.108 119.235 A 191.615 191.615 0 0 1 296.448 120.576 Q 292.608 123.648 288 127.36 Q 283.392 131.072 279.168 134.272 A 846.573 846.573 0 0 1 278.515 134.767 Q 274.803 137.574 273.152 138.752 Q 275.968 130.048 280.96 120.704 Q 285.952 111.36 290.688 103.552 Q 295.424 95.744 299.008 90.24 Q 301.822 85.919 302.427 84.044 A 2.877 2.877 0 0 0 302.592 83.2 A 5.977 5.977 0 0 0 301.438 79.74 Q 300.131 77.86 297.344 76.16 A 21.315 21.315 0 0 0 293.029 74.149 A 23.658 23.658 0 0 0 285.44 72.96 A 2.942 2.942 0 0 0 284.442 73.153 Q 281.756 74.125 277.376 80 A 85.149 85.149 0 0 0 275.62 82.448 Q 271.231 88.793 266.752 97.536 A 144.488 144.488 0 0 0 265.107 100.854 A 160.279 160.279 0 0 0 257.408 120.064 Q 255.533 125.751 254.544 131.038 A 61.466 61.466 0 0 0 253.44 142.336 A 75.197 75.197 0 0 0 253.452 143.693 Q 253.564 149.888 254.72 153.472 A 34.469 34.469 0 0 0 254.773 153.636 Q 256.035 157.48 257.664 159.36 Q 259.328 161.28 260.992 161.664 A 24.616 24.616 0 0 0 261.143 161.699 Q 262.703 162.048 263.68 162.048 A 3.556 3.556 0 0 0 263.933 162.039 Q 266.487 161.857 271.36 158.08 Q 276.48 154.112 282.24 148.992 Q 288 143.872 293.248 138.88 Q 298.496 133.888 300.8 131.584 Q 304.64 128 306.304 124.032 A 28.726 28.726 0 0 0 307.102 121.913 Q 307.968 119.281 307.968 117.248 Q 307.968 115.95 307.615 115.115 A 2.294 2.294 0 0 0 306.304 113.792 Q 304.942 113.268 302.634 115.234 Z M 391.21 115.234 A 18.327 18.327 0 0 0 390.144 116.224 Q 389.164 117.204 386.684 119.235 A 191.615 191.615 0 0 1 385.024 120.576 Q 381.184 123.648 376.576 127.36 Q 371.968 131.072 367.744 134.272 A 846.573 846.573 0 0 1 367.091 134.767 Q 363.379 137.574 361.728 138.752 Q 364.544 130.048 369.536 120.704 Q 374.528 111.36 379.264 103.552 Q 384 95.744 387.584 90.24 Q 390.398 85.919 391.003 84.044 A 2.877 2.877 0 0 0 391.168 83.2 A 5.977 5.977 0 0 0 390.014 79.74 Q 388.707 77.86 385.92 76.16 A 21.315 21.315 0 0 0 381.605 74.149 A 23.658 23.658 0 0 0 374.016 72.96 A 2.942 2.942 0 0 0 373.018 73.153 Q 370.332 74.125 365.952 80 A 85.149 85.149 0 0 0 364.196 82.448 Q 359.807 88.793 355.328 97.536 A 144.488 144.488 0 0 0 353.683 100.854 A 160.279 160.279 0 0 0 345.984 120.064 Q 344.109 125.751 343.12 131.038 A 61.466 61.466 0 0 0 342.016 142.336 A 75.197 75.197 0 0 0 342.028 143.693 Q 342.14 149.888 343.296 153.472 A 34.469 34.469 0 0 0 343.349 153.636 Q 344.611 157.48 346.24 159.36 Q 347.904 161.28 349.568 161.664 A 24.616 24.616 0 0 0 349.719 161.699 Q 351.279 162.048 352.256 162.048 A 3.556 3.556 0 0 0 352.509 162.039 Q 355.063 161.857 359.936 158.08 Q 365.056 154.112 370.816 148.992 Q 376.576 143.872 381.824 138.88 Q 387.072 133.888 389.376 131.584 Q 393.216 128 394.88 124.032 A 28.726 28.726 0 0 0 395.678 121.913 Q 396.544 119.281 396.544 117.248 Q 396.544 115.95 396.191 115.115 A 2.294 2.294 0 0 0 394.88 113.792 Q 393.518 113.268 391.21 115.234 Z M 11.776 94.208 A 2.548 2.548 0 0 0 12.133 95.448 Q 12.647 96.371 13.9 97.383 A 16.354 16.354 0 0 0 14.976 98.176 Q 17.411 99.832 20.956 101.413 A 65.173 65.173 0 0 0 23.296 102.4 Q 28.076 104.312 34.307 105.89 A 124.107 124.107 0 0 0 35.2 106.112 Q 41.984 107.776 49.152 108.8 Q 58.112 97.024 67.968 85.376 Q 77.824 73.728 87.552 63.104 Q 97.28 52.48 106.88 43.008 Q 116.48 33.536 125.184 25.856 Q 110.08 26.624 95.744 30.464 A 163.734 163.734 0 0 0 72.428 38.577 A 148.573 148.573 0 0 0 68.864 40.192 Q 56.32 46.08 45.824 53.248 Q 35.328 60.416 27.776 67.84 A 96.282 96.282 0 0 0 21.901 74.126 Q 19.173 77.336 17.106 80.444 A 53.645 53.645 0 0 0 16 82.176 A 39.559 39.559 0 0 0 13.796 86.272 Q 12.849 88.333 12.346 90.205 A 15.462 15.462 0 0 0 11.776 94.208 Z M 78.592 109.568 Q 88.32 109.312 96.384 109.056 Q 104.448 108.8 111.104 109.312 Q 119.296 91.904 129.28 74.752 Q 139.264 57.6 148.992 42.752 Q 134.656 55.04 115.968 72.32 Q 97.28 89.6 78.592 109.568 Z M 317.82 26.938 A 40.284 40.284 0 0 0 315.648 27.136 A 5.923 5.923 0 0 0 315.395 27.188 Q 312.689 27.803 309.632 31.104 Q 306.432 34.56 303.488 39.168 Q 300.544 43.776 298.752 48.512 A 34.63 34.63 0 0 0 298.724 48.588 Q 297.258 52.488 297.366 55.078 A 7.178 7.178 0 0 0 297.472 56.064 Q 297.984 58.88 299.904 61.056 Q 301.824 63.232 303.872 64.512 Q 306.432 66.048 309.504 67.328 A 228.857 228.857 0 0 1 312.884 61.679 Q 318.083 53.283 321.792 49.28 A 124.522 124.522 0 0 1 324.054 46.899 Q 327.318 43.56 329.344 42.112 L 332.928 39.552 Q 333.824 38.912 333.312 35.328 A 6.807 6.807 0 0 0 332.314 32.736 Q 331.116 30.827 328.576 29.056 A 10.181 10.181 0 0 0 326.547 27.972 Q 323.146 26.603 317.82 26.938 Z M 406.396 26.938 A 40.284 40.284 0 0 0 404.224 27.136 A 5.923 5.923 0 0 0 403.971 27.188 Q 401.265 27.803 398.208 31.104 Q 395.008 34.56 392.064 39.168 Q 389.12 43.776 387.328 48.512 A 34.63 34.63 0 0 0 387.3 48.588 Q 385.834 52.488 385.942 55.078 A 7.178 7.178 0 0 0 386.048 56.064 Q 386.56 58.88 388.48 61.056 Q 390.4 63.232 392.448 64.512 Q 395.008 66.048 398.08 67.328 A 228.857 228.857 0 0 1 401.46 61.679 Q 406.659 53.283 410.368 49.28 A 124.522 124.522 0 0 1 412.63 46.899 Q 415.894 43.56 417.92 42.112 L 421.504 39.552 Q 422.4 38.912 421.888 35.328 A 6.807 6.807 0 0 0 420.89 32.736 Q 419.692 30.827 417.152 29.056 A 10.181 10.181 0 0 0 415.123 27.972 Q 411.722 26.603 406.396 26.938 Z" vector-effect="non-scaling-stroke"/></g></svg>
