<svg width="23" height="23" viewBox="0 0 23 23" fill="none" xmlns="http://www.w3.org/2000/svg">
<path d="M0.174316 1.73994C0.174316 0.875766 0.897793 0.174316 1.78963 0.174316H20.4153C21.3075 0.174316 22.0306 0.875766 22.0306 1.73994V20.4652C22.0306 21.3297 21.3075 22.0306 20.4153 22.0306H1.78963C0.897879 22.0306 0.174316 21.3297 0.174316 20.4655V1.73969V1.73994Z" fill="#006699"/>
<path d="M6.8159 18.4654V8.62565H3.54532V18.4654H6.81625H6.8159ZM5.18129 7.28243C6.32158 7.28243 7.03148 6.52685 7.03148 5.58259C7.01014 4.61681 6.32158 3.88232 5.20298 3.88232C4.08361 3.88232 3.35254 4.61681 3.35254 5.5825C3.35254 6.52676 4.06218 7.28234 5.15986 7.28234H5.18104L5.18129 7.28243ZM8.62622 18.4654H11.8965V12.971C11.8965 12.6773 11.9179 12.3829 12.0043 12.1731C12.2406 11.5853 12.7787 10.9768 13.6824 10.9768C14.8656 10.9768 15.3392 11.8791 15.3392 13.202V18.4654H18.6094V12.8236C18.6094 9.80136 16.9961 8.39496 14.8444 8.39496C13.0803 8.39496 12.3055 9.38097 11.875 10.0525H11.8968V8.62599H8.62639C8.66908 9.54908 8.62613 18.4658 8.62613 18.4658L8.62622 18.4654Z" fill="white"/>
</svg>
