<svg width="22" height="22" viewBox="0 0 22 22" fill="none" xmlns="http://www.w3.org/2000/svg">
<path d="M7.35864 10.9997C7.35864 8.98918 8.98903 7.35889 11.0008 7.35889C13.0125 7.35889 14.6438 8.98918 14.6438 10.9997C14.6438 13.0102 13.0125 14.6405 11.0008 14.6405C8.98903 14.6405 7.35864 13.0102 7.35864 10.9997ZM5.3893 10.9997C5.3893 14.0971 7.90155 16.6078 11.0008 16.6078C14.1 16.6078 16.6122 14.0971 16.6122 10.9997C16.6122 7.90235 14.1 5.39161 11.0008 5.39161C7.90155 5.39161 5.3893 7.90235 5.3893 10.9997ZM15.523 5.16924C15.5229 5.42845 15.5997 5.68187 15.7437 5.89746C15.8877 6.11304 16.0925 6.2811 16.3321 6.38039C16.5716 6.47969 16.8353 6.50574 17.0897 6.45528C17.3441 6.40481 17.5778 6.28008 17.7613 6.09686C17.9448 5.91365 18.0698 5.68017 18.1205 5.42596C18.1712 5.17176 18.1453 4.90823 18.0461 4.66871C17.947 4.42919 17.779 4.22444 17.5634 4.08034C17.3478 3.93625 17.0943 3.85928 16.8349 3.85918H16.8344C16.4867 3.85934 16.1533 3.9974 15.9075 4.24303C15.6616 4.48867 15.5233 4.82179 15.523 5.16924V5.16924ZM6.5858 19.8896C5.52035 19.8411 4.94125 19.6638 4.5564 19.5139C4.04619 19.3154 3.68215 19.079 3.2994 18.697C2.91666 18.315 2.67974 17.9515 2.48198 17.4416C2.33196 17.0572 2.15449 16.4782 2.10605 15.4134C2.05307 14.2622 2.04249 13.9164 2.04249 10.9998C2.04249 8.08321 2.05395 7.73835 2.10605 6.58617C2.15457 5.52135 2.33336 4.94356 2.48198 4.55798C2.68061 4.04808 2.91718 3.68426 3.2994 3.30174C3.68163 2.91922 4.04532 2.68244 4.5564 2.48481C4.94107 2.33487 5.52035 2.15751 6.5858 2.1091C7.73772 2.05615 8.08374 2.04558 11.0008 2.04558C13.9178 2.04558 14.2642 2.05703 15.417 2.1091C16.4825 2.15759 17.0606 2.33627 17.4464 2.48481C17.9567 2.68244 18.3207 2.91975 18.7034 3.30174C19.0862 3.68373 19.3222 4.04808 19.5209 4.55798C19.6709 4.94242 19.8484 5.52135 19.8968 6.58617C19.9498 7.73835 19.9604 8.08321 19.9604 10.9998C19.9604 13.9164 19.9498 14.2612 19.8968 15.4134C19.8483 16.4782 19.6699 17.057 19.5209 17.4416C19.3222 17.9515 19.0857 18.3153 18.7034 18.697C18.3212 19.0786 17.9567 19.3154 17.4464 19.5139C17.0618 19.6638 16.4825 19.8412 15.417 19.8896C14.2651 19.9426 13.9191 19.9531 11.0008 19.9531C8.08243 19.9531 7.73737 19.9426 6.5858 19.8896V19.8896ZM6.49532 0.144266C5.33195 0.197214 4.53699 0.38157 3.84275 0.651552C3.12377 0.930358 2.51511 1.3044 1.9069 1.91129C1.29868 2.51818 0.925376 3.12743 0.646403 3.84598C0.376259 4.54025 0.191792 5.33429 0.138813 6.49696C0.0849588 7.66146 0.0726318 8.03376 0.0726318 10.9997C0.0726318 13.9657 0.0849588 14.338 0.138813 15.5025C0.191792 16.6652 0.376259 17.4592 0.646403 18.1534C0.925376 18.8715 1.29877 19.4815 1.9069 20.0881C2.51503 20.6948 3.12377 21.0683 3.84275 21.3479C4.53831 21.6178 5.33195 21.8022 6.49532 21.8552C7.66113 21.9081 8.03304 21.9213 11.0008 21.9213C13.9685 21.9213 14.341 21.909 15.5062 21.8552C16.6697 21.8022 17.4641 21.6178 18.1588 21.3479C18.8773 21.0683 19.4864 20.695 20.0946 20.0881C20.7029 19.4812 21.0754 18.8715 21.3551 18.1534C21.6253 17.4592 21.8106 16.6651 21.8627 15.5025C21.9157 14.3371 21.928 13.9657 21.928 10.9997C21.928 8.03376 21.9157 7.66146 21.8627 6.49696C21.8097 5.3342 21.6253 4.53981 21.3551 3.84598C21.0754 3.12787 20.7019 2.51914 20.0946 1.91129C19.4874 1.30344 18.8773 0.930358 18.1597 0.651552C17.4641 0.38157 16.6696 0.19634 15.5071 0.144266C14.3419 0.0913183 13.9694 0.078125 11.0016 0.078125C8.03391 0.078125 7.66113 0.0904445 6.49532 0.144266Z" fill="url(#paint0_radial_117_4204)"/>
<path d="M7.35864 10.9997C7.35864 8.98918 8.98903 7.35889 11.0008 7.35889C13.0125 7.35889 14.6438 8.98918 14.6438 10.9997C14.6438 13.0102 13.0125 14.6405 11.0008 14.6405C8.98903 14.6405 7.35864 13.0102 7.35864 10.9997ZM5.3893 10.9997C5.3893 14.0971 7.90155 16.6078 11.0008 16.6078C14.1 16.6078 16.6122 14.0971 16.6122 10.9997C16.6122 7.90235 14.1 5.39161 11.0008 5.39161C7.90155 5.39161 5.3893 7.90235 5.3893 10.9997ZM15.523 5.16924C15.5229 5.42845 15.5997 5.68187 15.7437 5.89746C15.8877 6.11304 16.0925 6.2811 16.3321 6.38039C16.5716 6.47969 16.8353 6.50574 17.0897 6.45528C17.3441 6.40481 17.5778 6.28008 17.7613 6.09686C17.9448 5.91365 18.0698 5.68017 18.1205 5.42596C18.1712 5.17176 18.1453 4.90823 18.0461 4.66871C17.947 4.42919 17.779 4.22444 17.5634 4.08034C17.3478 3.93625 17.0943 3.85928 16.8349 3.85918H16.8344C16.4867 3.85934 16.1533 3.9974 15.9075 4.24303C15.6616 4.48867 15.5233 4.82179 15.523 5.16924V5.16924ZM6.5858 19.8896C5.52035 19.8411 4.94125 19.6638 4.5564 19.5139C4.04619 19.3154 3.68215 19.079 3.2994 18.697C2.91666 18.315 2.67974 17.9515 2.48198 17.4416C2.33196 17.0572 2.15449 16.4782 2.10605 15.4134C2.05307 14.2622 2.04249 13.9164 2.04249 10.9998C2.04249 8.08321 2.05395 7.73835 2.10605 6.58617C2.15457 5.52135 2.33336 4.94356 2.48198 4.55798C2.68061 4.04808 2.91718 3.68426 3.2994 3.30174C3.68163 2.91922 4.04532 2.68244 4.5564 2.48481C4.94107 2.33487 5.52035 2.15751 6.5858 2.1091C7.73772 2.05615 8.08374 2.04558 11.0008 2.04558C13.9178 2.04558 14.2642 2.05703 15.417 2.1091C16.4825 2.15759 17.0606 2.33627 17.4464 2.48481C17.9567 2.68244 18.3207 2.91975 18.7034 3.30174C19.0862 3.68373 19.3222 4.04808 19.5209 4.55798C19.6709 4.94242 19.8484 5.52135 19.8968 6.58617C19.9498 7.73835 19.9604 8.08321 19.9604 10.9998C19.9604 13.9164 19.9498 14.2612 19.8968 15.4134C19.8483 16.4782 19.6699 17.057 19.5209 17.4416C19.3222 17.9515 19.0857 18.3153 18.7034 18.697C18.3212 19.0786 17.9567 19.3154 17.4464 19.5139C17.0618 19.6638 16.4825 19.8412 15.417 19.8896C14.2651 19.9426 13.9191 19.9531 11.0008 19.9531C8.08243 19.9531 7.73737 19.9426 6.5858 19.8896V19.8896ZM6.49532 0.144266C5.33195 0.197214 4.53699 0.38157 3.84275 0.651552C3.12377 0.930358 2.51511 1.3044 1.9069 1.91129C1.29868 2.51818 0.925376 3.12743 0.646403 3.84598C0.376259 4.54025 0.191792 5.33429 0.138813 6.49696C0.0849588 7.66146 0.0726318 8.03376 0.0726318 10.9997C0.0726318 13.9657 0.0849588 14.338 0.138813 15.5025C0.191792 16.6652 0.376259 17.4592 0.646403 18.1534C0.925376 18.8715 1.29877 19.4815 1.9069 20.0881C2.51503 20.6948 3.12377 21.0683 3.84275 21.3479C4.53831 21.6178 5.33195 21.8022 6.49532 21.8552C7.66113 21.9081 8.03304 21.9213 11.0008 21.9213C13.9685 21.9213 14.341 21.909 15.5062 21.8552C16.6697 21.8022 17.4641 21.6178 18.1588 21.3479C18.8773 21.0683 19.4864 20.695 20.0946 20.0881C20.7029 19.4812 21.0754 18.8715 21.3551 18.1534C21.6253 17.4592 21.8106 16.6651 21.8627 15.5025C21.9157 14.3371 21.928 13.9657 21.928 10.9997C21.928 8.03376 21.9157 7.66146 21.8627 6.49696C21.8097 5.3342 21.6253 4.53981 21.3551 3.84598C21.0754 3.12787 20.7019 2.51914 20.0946 1.91129C19.4874 1.30344 18.8773 0.930358 18.1597 0.651552C17.4641 0.38157 16.6696 0.19634 15.5071 0.144266C14.3419 0.0913183 13.9694 0.078125 11.0016 0.078125C8.03391 0.078125 7.66113 0.0904445 6.49532 0.144266Z" fill="url(#paint1_radial_117_4204)"/>
<defs>
<radialGradient id="paint0_radial_117_4204" cx="0" cy="0" r="1" gradientUnits="userSpaceOnUse" gradientTransform="translate(2.97637 22.0245) scale(28.5315 28.5144)">
<stop offset="0.09" stop-color="#FA8F21"/>
<stop offset="0.78" stop-color="#D82D7E"/>
</radialGradient>
<radialGradient id="paint1_radial_117_4204" cx="0" cy="0" r="1" gradientUnits="userSpaceOnUse" gradientTransform="translate(13.3275 23.0031) scale(22.4868 22.4733)">
<stop offset="0.64" stop-color="#8C3AAA" stop-opacity="0"/>
<stop offset="1" stop-color="#8C3AAA"/>
</radialGradient>
</defs>
</svg>
